<svg xmlns="http://www.w3.org/2000/svg" viewBox="0 0 42 48"><g fill="#4e8fcc" data-name="Layer 2"><path d="M41.96 6.608c-.011-.06-.034-.115-.05-.173a1.997 1.997 0 0 0-.063-.2 1.964 1.964 0 0 0-.103-.195c-.027-.05-.049-.101-.08-.149a2.01 2.01 0 0 0-.555-.555c-.048-.031-.1-.053-.149-.08a1.964 1.964 0 0 0-.195-.103 1.997 1.997 0 0 0-.2-.062c-.058-.017-.113-.04-.173-.051A1.994 1.994 0 0 0 40 5h-7a2 2 0 0 0 0 4h2.172l-4.23 4.23A11.981 11.981 0 0 0 12 23a12.2 12.2 0 0 0 10 12v4h-3a2 2 0 0 0 0 4h3v3a2 2 0 0 0 4 0v-3h3a2 2 0 0 0 0-4h-3v-4a12.2 12.2 0 0 0 10-12 11.922 11.922 0 0 0-2.23-6.942l4.23-4.23V14a2 2 0 0 0 4 0V7a1.994 1.994 0 0 0-.04-.392zM24 31a8 8 0 1 1 8-8 8.01 8.01 0 0 1-8 8zM6.414 3.586a2 2 0 0 0-2.828 2.828l4 4a2 2 0 1 0 2.828-2.828zM7 13.005H2a2 2 0 0 0 0 4h5a2 2 0 0 0 0-4zM15 9a2 2 0 0 0 2-2V2a2 2 0 0 0-4 0v5a2 2 0 0 0 2 2z"/></g></svg>