<svg xmlns="http://www.w3.org/2000/svg" viewBox="0 0 30 43"><path fill="#4e8fcc" d="M29.96 1.608c-.011-.06-.034-.115-.05-.173a1.997 1.997 0 0 0-.063-.2 1.964 1.964 0 0 0-.103-.195c-.027-.05-.049-.101-.08-.149a2.01 2.01 0 0 0-.555-.555c-.048-.031-.1-.053-.149-.08a1.964 1.964 0 0 0-.195-.103 1.997 1.997 0 0 0-.2-.062c-.058-.017-.113-.04-.173-.051A1.994 1.994 0 0 0 28 0h-7a2 2 0 0 0 0 4h2.172l-4.23 4.23A11.981 11.981 0 0 0 0 18a12.2 12.2 0 0 0 10 12v4H7a2 2 0 0 0 0 4h3v3a2 2 0 0 0 4 0v-3h3a2 2 0 0 0 0-4h-3v-4a12.2 12.2 0 0 0 10-12 11.922 11.922 0 0 0-2.23-6.942L26 6.828V9a2 2 0 0 0 4 0V2a1.994 1.994 0 0 0-.04-.392zM12 26a8 8 0 1 1 8-8 8.01 8.01 0 0 1-8 8z" data-name="Layer 2"/></svg>