<svg xmlns="http://www.w3.org/2000/svg" viewBox="0 0 48 40"><g fill="#5091cd" data-name="Layer 2"><path d="M17.13 19.51a7.565 7.565 0 0 0-4.5-1.51A7.69 7.69 0 0 0 5 25.58V29h8v-1.03a10.938 10.938 0 0 1 4.13-8.46zM43 29v-3.42A7.69 7.69 0 0 0 35.37 18a7.565 7.565 0 0 0-4.5 1.51A10.938 10.938 0 0 1 35 27.97V29zM29.42 20.88A9 9 0 0 0 15 27.97V32h18v-4.03a8.934 8.934 0 0 0-3.58-7.09z"/><circle cx="24" cy="12" r="5"/><circle cx="13" cy="12" r="4"/><circle cx="35" cy="12" r="4"/><path d="M3.44 5.56a1.5 1.5 0 0 0 2.12-2.12l-3-3A1.5 1.5 0 0 0 .44 2.56zM44.56 5.56l3-3A1.5 1.5 0 1 0 45.44.44l-3 3a1.5 1.5 0 0 0 2.12 2.12zM4.5 34a1.495 1.495 0 0 0-1.06.44l-3 3a1.5 1.5 0 0 0 2.12 2.12l3-3A1.5 1.5 0 0 0 4.5 34zM44.56 34.44a1.5 1.5 0 0 0-2.12 2.12l3 3a1.5 1.5 0 0 0 2.12-2.12z"/></g></svg>