<svg xmlns="http://www.w3.org/2000/svg" viewBox="0 0 48 40"><g fill="#5091cd" data-name="Layer 2"><path d="M17.13 19.51a7.565 7.565 0 0 0-4.5-1.51A7.69 7.69 0 0 0 5 25.58V29h8v-1.03a10.938 10.938 0 0 1 4.13-8.46zM43 29v-3.42A7.69 7.69 0 0 0 35.37 18a7.565 7.565 0 0 0-4.5 1.51A10.938 10.938 0 0 1 35 27.97V29zM29.42 20.88A9 9 0 0 0 15 27.97V32h18v-4.03a8.934 8.934 0 0 0-3.58-7.09z"/><circle cx="24" cy="12" r="5"/><circle cx="13" cy="12" r="4"/><circle cx="35" cy="12" r="4"/><path d="M8.5 37H3v-5.5a1.5 1.5 0 0 0-3 0v7A1.5 1.5 0 0 0 1.5 40h7a1.5 1.5 0 0 0 0-3zM28.5 37h-9a1.5 1.5 0 0 0 0 3h9a1.5 1.5 0 0 0 0-3zM19.5 3h9a1.5 1.5 0 0 0 0-3h-9a1.5 1.5 0 0 0 0 3zM1.5 10A1.5 1.5 0 0 0 3 8.5V3h5.5a1.5 1.5 0 0 0 0-3h-7A1.5 1.5 0 0 0 0 1.5v7A1.5 1.5 0 0 0 1.5 10zM46.5 0h-7a1.5 1.5 0 0 0 0 3H45v5.5a1.5 1.5 0 0 0 3 0v-7A1.5 1.5 0 0 0 46.5 0zM46.5 30a1.5 1.5 0 0 0-1.5 1.5V37h-5.5a1.5 1.5 0 0 0 0 3h7a1.5 1.5 0 0 0 1.5-1.5v-7a1.5 1.5 0 0 0-1.5-1.5z"/></g></svg>