<svg xmlns="http://www.w3.org/2000/svg" viewBox="0 0 48 40"><g fill="#5091cd" data-name="Layer 2"><path d="M46.5 37h-45a1.5 1.5 0 0 0 0 3h45a1.5 1.5 0 0 0 0-3zM1.5 3h45a1.5 1.5 0 0 0 0-3h-45a1.5 1.5 0 0 0 0 3zM5 26.58V30h8v-1.03a10.938 10.938 0 0 1 4.13-8.46 7.565 7.565 0 0 0-4.5-1.51A7.69 7.69 0 0 0 5 26.58zM43 30v-3.42A7.69 7.69 0 0 0 35.37 19a7.565 7.565 0 0 0-4.5 1.51A10.938 10.938 0 0 1 35 28.97V30zM33 30v-1.03a9 9 0 0 0-18 0V33h18z"/><circle cx="24" cy="13" r="5"/><circle cx="13" cy="13" r="4"/><circle cx="35" cy="13" r="4"/></g></svg>